<?xml version="1.0" encoding="iso-8859-1"?>
<!-- Generator: Adobe Illustrator 19.0.0, SVG Export Plug-In . SVG Version: 6.00 Build 0)  -->
<svg version="1.1" id="Layer_1" xmlns="http://www.w3.org/2000/svg" xmlns:xlink="http://www.w3.org/1999/xlink" x="0px" y="0px"
	 viewBox="0 0 480 480" style="enable-background:new 0 0 480 480;" xml:space="preserve">
<g id="XMLID_1544_">
	<g>
		<g>
			<path d="M466.154,415.657l-60.268-47.017l-86.688-130.472l29.136-19.23c0,0,9.166-5.751,3.027-14.998
				C343.46,192.039,235.527,29.602,235.527,29.602c-9.15-13.768-27.828-17.559-41.638-8.442l-23.446,15.475v-6.644
				C170.443,13.454,156.959,0,140.384,0H80.207c-16.575,0-30.06,13.454-30.06,29.991v202.786C21.188,241.356,0,268.204,0,299.907
				V449.82c0,16.541,13.458,29.998,30,29.998h160.59c16.542,0,30-13.457,30-29.998V299.906c0-31.703-21.188-58.551-50.147-67.13
				v-83.942l81.092,122.049c0.001,0.001,1.386,1.665,1.386,1.665c5.939,5.843,12.432,1.16,12.434,1.158
				c0.004-0.002,37.152-24.52,37.152-24.52l86.72,130.52l19.908,73.648c3.047,11.278,11.076,20.123,22.024,24.265
				c4.212,1.594,8.561,2.381,12.875,2.381c6.93,0,13.771-2.032,19.805-6.014c9.789-6.461,15.669-16.876,16.132-28.576
				C480.434,433.714,475.398,422.869,466.154,415.657z M70.147,29.991c0-5.511,4.513-9.993,10.06-9.993h60.177
				c5.547,0,10.06,4.483,10.06,9.993v19.844l-6.728,4.44c-6.705,4.426-11.277,11.193-12.875,19.054
				c-1.596,7.852-0.032,15.854,4.405,22.532l15.26,22.967c-0.042,0.37-0.063,0.747-0.063,1.128v109.955H70.147V29.991z
				 M200.59,299.907v149.914c0,5.513-4.486,9.999-10,9.999H30c-5.514,0-10-4.486-10-9.999V299.907c0-27.569,22.43-49.997,50-49.997
				h80.59C178.161,249.91,200.59,272.338,200.59,299.907z M262.676,251.512L151.904,84.793c-1.474-2.219-1.994-4.876-1.465-7.481
				c0.532-2.616,2.057-4.87,4.294-6.346l50.174-33.114c1.711-1.129,3.643-1.669,5.555-1.669c3.266,0,6.473,1.578,8.407,4.488
				l110.737,166.667L262.676,251.512z M459.986,444.62c-0.205,5.186-2.816,9.806-7.165,12.676
				c-4.369,2.883-9.687,3.471-14.585,1.619c-4.871-1.844-8.441-5.772-9.795-10.779l-12.514-46.296l37.925,29.586
				C457.956,434.628,460.192,439.436,459.986,444.62z"/>
			<path d="M130.383,279.895c0,5.522,4.478,9.999,10,9.999c11.077,0,20.089,8.967,20.089,19.989v120.093
				c0,5.522,4.478,9.999,10,9.999c5.522,0,10-4.477,10-9.999V309.883c0-22.05-17.984-39.988-40.089-39.988
				C134.861,269.895,130.383,274.372,130.383,279.895z"/>
		</g>
	</g>
</g>
<g>
</g>
<g>
</g>
<g>
</g>
<g>
</g>
<g>
</g>
<g>
</g>
<g>
</g>
<g>
</g>
<g>
</g>
<g>
</g>
<g>
</g>
<g>
</g>
<g>
</g>
<g>
</g>
<g>
</g>
</svg>
