<svg id="Capa_1" enable-background="new 0 0 501.451 501.451" height="512" viewBox="0 0 501.451 501.451" width="512" xmlns="http://www.w3.org/2000/svg"><g><path d="m389.421 406.389c-4.962.713-8.517 5.193-8.517 10.205v75.219c0 12.84 20 12.859 20 0v-75.531c0-6.009-5.302-10.781-11.483-9.893z"/><path d="m362.805 116.239c.923-18.226-5.493-35.548-18.067-48.775-12.573-13.227-29.548-20.511-47.798-20.511h-63.583c-18.25 0-35.225 7.284-47.798 20.511-17.77 18.691-18.455 41.116-17.236 65.184-28.093 26.142-44.143 62.876-44.143 101.319v257.848c0 12.84 20 12.859 20 0v-257.849c0-26.826 9.143-52.676 25.555-73.434l4.292 84.727c.139 50.127 40.962 90.861 91.122 90.861s90.982-40.734 91.122-90.861l3.959-78.175c13.44 19.536 20.674 42.638 20.674 66.882v100.524c0 12.84 20 12.859 20 0v-100.524c0-36.34-13.897-70.488-39.176-96.458zm-19.975-1.012-6.547 129.265c-.008.168-.013.337-.013.506 0 39.217-31.905 71.122-71.123 71.122-39.217 0-71.122-31.905-71.122-71.122 0-.169-.004-.337-.013-.506l-6.547-129.265c-.665-13.141 4.145-25.608 13.519-34.936 8.759-8.716 20.79-13.338 33.146-13.338h62.033c12.356 0 24.387 4.622 33.146 13.338 9.376 9.328 14.186 21.795 13.521 34.936z"/><path d="m494.567 98.898-26.118-14.285-14.285-26.119c-3.678-6.725-13.839-6.779-17.547 0l-14.285 26.119-26.119 14.285c-6.725 3.678-6.779 13.839 0 17.547l26.119 14.285 14.285 26.118c3.678 6.725 13.839 6.779 17.547 0l14.285-26.118 26.118-14.285c6.724-3.678 6.779-13.84 0-17.547zm-25.638 8.773-15.216 8.322-8.322 15.216-8.322-15.216-15.216-8.323 15.216-8.322 8.322-15.216 8.323 15.216z"/><path d="m40.625 59.104 23.591 12.903 12.902 23.591c3.678 6.725 13.839 6.779 17.547 0l12.903-23.591 23.591-12.903c6.725-3.678 6.779-13.839 0-17.547l-23.591-12.902-12.903-23.591c-3.678-6.725-13.839-6.779-17.547 0l-12.902 23.591-23.591 12.903c-6.725 3.677-6.779 13.839 0 17.546zm25.639-8.773 12.689-6.94 6.94-12.689 6.94 12.689 12.689 6.939-12.689 6.94-6.94 12.689-6.939-12.689z"/><path d="m102.49 282.712-25.23-13.8-13.799-25.23c-3.678-6.725-13.839-6.779-17.547 0l-13.799 25.23-25.23 13.8c-6.725 3.678-6.779 13.839 0 17.547l25.23 13.799 13.799 25.23c3.677 6.724 13.84 6.779 17.547 0l13.799-25.23 25.23-13.799c6.724-3.677 6.779-13.839 0-17.547zm-39.967 16.61-7.837 14.328-7.835-14.327-14.328-7.836 14.329-7.838 7.835-14.327 7.836 14.328 14.328 7.837z"/><path d="m381.67 378.971c3.365 8.071 15.201 8.108 18.516-.121 1.043-2.59.947-5.559-.283-8.066-2.653-5.407-9.135-7.029-13.925-4.334-4.337 2.44-6.22 7.928-4.308 12.521z"/><path d="m292.515 408.793c12.84 0 12.859-20 0-20h-55.71c-12.84 0-12.859 20 0 20z"/><path d="m308.153 429.613h-86.009c-12.84 0-12.859 20 0 20h86.009c12.84 0 12.858-20 0-20z"/></g></svg>