<svg id="Layer_3" enable-background="new 0 0 64 64" height="512" viewBox="0 0 64 64" width="512" xmlns="http://www.w3.org/2000/svg"><g><path d="m61.949 34.684c-.63-1.89-.949-3.857-.949-5.846v-27.838h-2v27.838c0 2.205.354 4.385 1.051 6.479.63 1.889.949 3.856.949 5.845v6.838c0 1.103-.897 2-2 2s-2-.897-2-2v-8h-2v8c0 1.103-.897 2-2 2s-2-.897-2-2v-8h-2v8c0 1.103-.897 2-2 2s-2-.897-2-2v-8h-2v8c0 1.103-.897 2-2 2s-2-.897-2-2v-8h-2v8c0 2.206-1.794 4-4 4s-4-1.794-4-4c0-1.075.355-2.141 1-3l.599-.8c.903-1.203 1.4-2.694 1.4-4.2v-5.09c2.833-.478 5-2.942 5-5.91 0-1.506-.498-2.997-1.4-4.199l-.599-.802c-.645-.858-1-1.924-1-2.999v-20h-2v20c0 1.506.498 2.997 1.4 4.199l.6.802c.645.858 1 1.924 1 2.999 0 2.206-1.794 4-4 4s-4-1.794-4-4v-8h-2v8c0 1.103-.897 2-2 2s-2-.897-2-2v-8h-2v8c0 1.103-.897 2-2 2s-2-.897-2-2v-8h-2v8c0 1.103-.897 2-2 2s-2-.897-2-2v-8h-2v8c0 1.103-.897 2-2 2s-2-.897-2-2v-6.838c0-1.989.319-3.956.949-5.846.697-2.093 1.051-4.273 1.051-6.478v-8.838h-2v8.838c0 1.989-.319 3.956-.949 5.846-.697 2.093-1.051 4.273-1.051 6.478v6.838c0 2.206 1.794 4 4 4 1.193 0 2.267-.525 3-1.357.733.832 1.807 1.357 3 1.357s2.267-.525 3-1.357c.733.832 1.807 1.357 3 1.357s2.267-.525 3-1.357c.733.832 1.807 1.357 3 1.357 1.064 0 2.033-.418 2.75-1.098.869 1.566 2.422 2.696 4.25 3.005v5.093c0 1.075-.355 2.141-1 3l-.6.8c-.902 1.203-1.4 2.694-1.4 4.2 0 3.309 2.691 6 6 6 2.256 0 4.226-1.252 5.25-3.098.717.68 1.686 1.098 2.75 1.098 1.193 0 2.267-.525 3-1.357.733.832 1.807 1.357 3 1.357s2.267-.525 3-1.357c.733.832 1.807 1.357 3 1.357s2.267-.525 3-1.357c.733.832 1.807 1.357 3 1.357 2.206 0 4-1.794 4-4v-6.838c0-2.205-.354-4.385-1.051-6.478z"/><path d="m29.293 31.707c.187.188.442.293.707.293h2c.265 0 .52-.105.707-.293l1-1c.188-.187.293-.441.293-.707v-3c0-.553-.448-1-1-1h-4c-.552 0-1 .447-1 1v3c0 .266.105.52.293.707zm.707-3.707h2v1.586l-.414.414h-1.172l-.414-.414z"/><path d="m31 45c-.552 0-1 .447-1 1v3c0 .266.105.52.293.707l1 1c.187.188.442.293.707.293h2c.265 0 .52-.105.707-.293l1-1c.188-.187.293-.441.293-.707v-3c0-.553-.448-1-1-1zm3 3.586-.414.414h-1.172l-.414-.414v-1.586h2z"/><path d="m26.372 49.071-5-2c-.008-.003-.016-.002-.024-.005l.36-.36c.096-.096.171-.21.222-.336l2-5c.148-.371.061-.795-.222-1.078s-.708-.368-1.08-.221l-5 2c-.125.051-.24.126-.335.222l-.36.36c-.003-.008-.002-.016-.005-.024l-2-5c-.152-.38-.519-.629-.928-.629s-.776.249-.929.629l-2 5c-.003.008-.002.016-.005.024l-.36-.36c-.096-.096-.21-.171-.335-.222l-5-2c-.371-.147-.796-.061-1.078.222-.283.283-.37.707-.222 1.078l2 5c.05.126.126.24.222.336l.36.36c-.008.003-.016.002-.024.005l-5 2c-.38.152-.629.519-.629.928s.249.776.628.929l5 2c.008.003.016.002.024.005l-.36.36c-.096.096-.171.21-.222.336l-2 5c-.147.37-.06.794.223 1.077.191.191.447.293.707.293.125 0 .251-.023.372-.071l5-2c.125-.051.24-.126.335-.222l.36-.36c.003.008.002.016.005.024l2 5c.152.38.519.629.928.629s.776-.249.929-.629l2-5c.003-.008.002-.016.005-.024l.36.36c.096.096.21.171.335.222l5 2c.12.048.246.071.371.071.26 0 .516-.102.707-.293.283-.283.37-.707.222-1.078l-2-5c-.05-.126-.126-.24-.222-.336l-.36-.36c.008-.003.016-.002.024-.005l5-2c.38-.152.629-.519.629-.928s-.249-.776-.628-.929zm-13.372.929c0-.552.449-1 1-1s1 .448 1 1-.449 1-1 1-1-.448-1-1zm5.562-6.147 2.643-1.058-1.057 2.644-1.688 1.688-2.323.773c-.012-.013-.025-.025-.037-.037l.774-2.323zm-4.562-3.161 1 2.5v1.645l-.73 2.19c-.09-.008-.178-.027-.27-.027s-.18.019-.27.027l-.73-2.19v-1.645zm-4.562 3.161 1.688 1.687.774 2.323c-.013.012-.025.025-.037.037l-2.323-.774-1.688-1.688-1.057-2.644zm-4.746 6.147 2.5-1h1.646l2.189.73c-.008.09-.027.177-.027.27s.019.18.027.27l-2.189.73h-1.646zm4.746 6.147-2.643 1.058 1.057-2.644 1.688-1.688 2.323-.774c.012.013.025.025.037.037l-.774 2.323zm4.562 3.161-1-2.5v-1.645l.73-2.19c.09.008.178.027.27.027s.18-.019.27-.027l.73 2.19v1.645zm4.562-3.161-1.688-1.687-.774-2.323c.013-.012.025-.025.037-.037l2.323.774 1.688 1.688 1.057 2.644zm2.246-5.147h-1.646l-2.189-.73c.008-.09.027-.177.027-.27s-.019-.18-.027-.27l2.189-.73h1.646l2.5 1z"/></g></svg>